#!OML:ASF H:\Terrain\Patient Classification 1\Terrain2\Thursday\justin.ASF
:FULLY-SPECIFIED
:DEGREES
1213
root 1.50287 17.7358 -10.6138 154.449 -86.5255 -520.57
lowerback 5.40988 0.132679 -1.28581
upperback 3.26484 0.0308049 2.81059
thorax 0.324992 -0.0684742 3.6157
lowerneck -10.8354 0.61053 -9.42144
upperneck 43.2302 -0.731485 3.96787
head 17.9442 -2.17428 3.17705
rclavicle 5.61567e-015 -5.56597e-015
rhumerus -33.7807 -16.1704 -75.8102
rradius 26.3565
rwrist -5.12023
rhand -19.4567 13.3386
rfingers 7.12502
rthumb 6.86428 -16.5301
lclavicle 5.61567e-015 -5.56597e-015
lhumerus -34.4299 9.47013 84.2657
lradius 30.2369
lwrist 1.37976
lhand -17.5643 22.8798
lfingers 7.12502
lthumb 8.69085 52.6809
rfemur -8.53864 -9.46732 13.6216
rtibia 93.5925
rfoot -17.6456 1.31968
rtoes 1.43604
lfemur -2.14444 0.619179 -19.9084
ltibia 16.8268
lfoot -2.05905 -7.3464
ltoes 20.4112
1214
root 1.49034 17.7575 -10.6191 148.314 -86.269 -514.075
lowerback 5.63051 0.253638 -0.887467
upperback 3.18184 0.211122 2.90614
thorax 0.104398 0.0290645 3.48013
lowerneck -11.0119 0.528027 -9.30004
upperneck 43.2596 -0.90897 4.07332
head 18.0272 -2.20711 3.17923
rclavicle 6.55989e-015 1.43125e-014
rhumerus -33.7935 -15.5928 -76.25
rradius 27.2238
rwrist -6.54962
rhand -19.6814 13.0403
rfingers 7.12502
rthumb 6.64742 -16.8354
lclavicle 6.55989e-015 1.43125e-014
lhumerus -34.2724 8.24052 84.6707
lradius 31.1912
lwrist 2.35259
lhand -17.9237 22.6983
lfingers 7.12502
lthumb 8.34394 52.5135
rfemur -10.3626 -9.14603 15.0477
rtibia 94.191
rfoot -18.2162 0.689049
rtoes 3.10196
lfemur -2.37235 0.256225 -19.351
ltibia 16.5324
lfoot -1.88575 -6.86768
ltoes 23.6485
1215
root 1.4634 17.7728 -10.6221 139.133 -85.7705 -504.653
lowerback 5.73881 0.332753 -0.104049
upperback 3.18055 0.348929 3.05606
thorax 0.0370194 0.104055 3.18489
lowerneck -10.9957 0.432658 -9.17433
upperneck 43.1156 -1.11647 4.17555
head 17.9559 -2.24263 3.1672
rclavicle -1.39149e-015 4.77083e-015
rhumerus -33.7983 -15.1013 -76.7368
rradius 28.0659
rwrist -7.83125
rhand -20.0301 12.707
rfingers 7.12502
rthumb 6.3108 -17.179
lclavicle -1.39149e-015 4.77083e-015
lhumerus -34.2052 6.99208 84.9607
lradius 32.3098
lwrist 3.28998
lhand -17.4158 22.5174
lfingers 7.12502
lthumb 8.83409 52.3125
rfemur -11.8684 -9.64072 16.1324
rtibia 94.5485
rfoot -18.5318 1.07063
rtoes 6.11331
lfemur -2.54701 0.560343 -18.3846
ltibia 16.5119
lfoot -1.91295 -7.18364
ltoes 23.7424
1216
root 1.42653 17.7874 -10.6154 134.972 -85.3613 -500.314
lowerback 5.82097 0.332323 0.359463
upperback 3.20981 0.364484 3.23945
thorax 0.0227167 0.112294 3.1123
lowerneck -11.0084 0.419201 -9.18254
upperneck 43.0211 -1.0989 4.12975
head 17.9007 -2.2338 3.14849
rclavicle -5.11871e-015 1.27222e-014
rhumerus -33.6432 -14.8308 -76.9064
rradius 28.6183
rwrist -8.07274
rhand -20.2763 12.807
rfingers 7.12502
rthumb 6.07309 -17.0859
lclavicle -5.11871e-015 1.27222e-014
lhumerus -34.06 6.42814 85.1511
lradius 33.1228
lwrist 4.10367
lhand -17.3056 22.232
lfingers 7.12502
lthumb 8.94047 52.0225
rfemur -13.0994 -9.9658 16.9358
rtibia 94.5923
rfoot -18.8698 0.804707
rtoes 6.94047
lfemur -2.58681 0.747522 -17.7949
ltibia 16.5623
lfoot -2.11638 -7.30745
ltoes 23.9448
1217
root 1.39027 17.7942 -10.6046 136.502 -85.3356 -501.716
lowerback 5.98763 0.358336 0.415272
upperback 3.22381 0.40486 3.15074
thorax -0.0567024 0.134257 2.98622
lowerneck -11.0559 0.403516 -8.91044
upperneck 42.9673 -1.08267 3.88122
head 17.8763 -2.20891 2.9837
rclavicle 4.22417e-015 -3.26007e-014
rhumerus -33.5137 -14.598 -77.2128
rradius 29.1621
rwrist -8.36674
rhand -20.6242 12.9879
rfingers 7.12502
rthumb 5.73716 -16.9144
lclavicle 4.22417e-015 -3.26007e-014
lhumerus -33.8148 6.2724 85.0583
lradius 33.6056
lwrist 4.40328
lhand -17.0636 21.7202
lfingers 7.12502
lthumb 9.17395 51.5006
rfemur -14.2725 -10.2935 17.0605
rtibia 94.5252
rfoot -19.5266 -0.130387
rtoes 3.72738
lfemur -2.49742 0.329183 -17.9161
ltibia 16.4841
lfoot -2.20637 -6.89519
ltoes 26.356
1218
root 1.35259 17.7904 -10.5985 145.386 -85.8296 -510.535
lowerback 6.13408 0.398449 -0.411975
upperback 3.27957 0.421651 2.88659
thorax -0.0857449 0.137754 3.17842
lowerneck -11.1181 0.417737 -8.73306
upperneck 42.8598 -1.01718 3.72897
head 17.8195 -2.1617 2.89015
rclavicle 4.42296e-015 1.19271e-015
rhumerus -33.4023 -13.7263 -77.7351
rradius 29.9948
rwrist -9.46841
rhand -20.8683 12.9905
rfingers 7.12502
rthumb 5.50148 -16.9181
lclavicle 4.42296e-015 1.19271e-015
lhumerus -33.549 6.14484 85.0143
lradius 34.1649
lwrist 4.55908
lhand -16.8712 21.3713
lfingers 7.12502
lthumb 9.35967 51.1435
rfemur -15.3382 -10.7363 16.2478
rtibia 94.3972
rfoot -19.6608 0.520766
rtoes 5.34232
lfemur -2.25933 0.306563 -18.8716
ltibia 16.1085
lfoot -2.02618 -6.94545
ltoes 28.0424
1219
root 1.31316 17.7909 -10.5968 156.625 -86.2269 -521.642
lowerback 6.14674 0.435004 -1.53208
upperback 3.33936 0.414329 2.79412
thorax -0.0365994 0.122008 3.71687
lowerneck -11.1889 0.445522 -8.94692
upperneck 42.7633 -0.930881 3.85265
head 17.774 -2.13398 3.00206
rclavicle 3.8763e-015 1.43125e-014
rhumerus -33.2615 -12.946 -77.9338
rradius 30.81
rwrist -10.1467
rhand -20.7541 13.1595
rfingers 7.12502
rthumb 5.61181 -16.7462
lclavicle 3.8763e-015 1.43125e-014
lhumerus -33.3632 5.82397 85.2636
lradius 34.9554
lwrist 5.08698
lhand -17.1873 21.1895
lfingers 7.12502
lthumb 9.05461 50.9751
rfemur -16.4538 -11.2966 15.51
rtibia 94.1207
rfoot -20.1994 -0.588754
rtoes 2.67555
lfemur -2.0006 0.958586 -19.7969
ltibia 15.4882
lfoot -1.71558 -7.58112
ltoes 28.0955
1220
root 1.27339 17.798 -10.5987 164.815 -86.4975 -529.76
lowerback 6.21404 0.485516 -2.25968
upperback 3.39175 0.444107 2.67518
thorax -0.0252509 0.129065 4.00394
lowerneck -11.1523 0.425473 -8.8496
upperneck 42.6731 -0.981772 3.85391
head 17.7142 -2.12977 2.97499
rclavicle -1.20762e-014 -6.36111e-015
rhumerus -33.2562 -12.4795 -78.1133
rradius 31.6592
rwrist -10.5913
rhand -20.7044 13.1184
rfingers 7.12502
rthumb 5.6598 -16.786
lclavicle -1.20762e-014 -6.36111e-015
lhumerus -33.2344 4.99623 85.4667
lradius 35.8134
lwrist 5.71291
lhand -17.2872 20.5744
lfingers 7.12502
lthumb 8.9582 50.3642
rfemur -17.5516 -11.9181 15.1756
rtibia 93.7138
rfoot -20.4214 -1.45747
rtoes 0.0426637
lfemur -1.70248 1.25966 -20.4197
ltibia 14.9387
lfoot -1.622 -7.95842
ltoes 27.3076
1221
root 1.23776 17.8002 -10.602 174.42 -86.7904 -539.345
lowerback 6.37096 0.460007 -2.93941
upperback 3.46579 0.370517 2.49673
thorax -0.0308858 0.0843635 4.2086
lowerneck -11.194 0.426693 -8.55471
upperneck 42.6251 -0.935907 3.57688
head 17.6895 -2.09372 2.79916
rclavicle 8.94531e-016 7.95139e-016
rhumerus -33.1094 -11.7761 -78.5129
rradius 32.432
rwrist -11.1629
rhand -21.1036 12.6399
rfingers 7.12502
rthumb 5.27434 -17.2745
lclavicle 8.94531e-016 7.95139e-016
lhumerus -33.0613 4.43274 85.4775
lradius 36.6772
lwrist 6.04325
lhand -16.7906 19.6945
lfingers 7.12502
lthumb 9.43744 49.4632
rfemur -18.5347 -12.397 14.7934
rtibia 93.1302
rfoot -20.2466 -0.647574
rtoes 0.423044
lfemur -1.57165 0.896497 -21.0683
ltibia 14.8279
lfoot -1.64199 -7.81813
ltoes 28.3848
1222
root 1.20745 17.7927 -10.604 178.115 -86.9584 -542.889
lowerback 6.44449 0.337907 -3.27823
upperback 3.50522 0.18594 2.53391
thorax -0.0131008 -0.0147546 4.4519
lowerneck -11.2944 0.492696 -8.76826
upperneck 42.6203 -0.757157 3.58673
head 17.6985 -2.05232 2.87413
rclavicle -4.96962e-017 1.03368e-014
rhumerus -32.7924 -11.0937 -78.7958
rradius 32.9979
rwrist -11.3141
rhand -21.3564 12.4692
rfingers 7.12502
rthumb 5.03027 -17.4511
lclavicle -4.96962e-017 1.03368e-014
lhumerus -33.0011 4.24586 85.5129
lradius 37.6251
lwrist 6.26862
lhand -16.1586 19.7323
lfingers 7.12502
lthumb 10.0472 49.4724
rfemur -19.5092 -12.6111 14.9853
rtibia 92.243
rfoot -19.8969 0.0908852
rtoes -2.08598
lfemur -1.83438 0.897211 -21.2455
ltibia 15.1949
lfoot -1.79106 -8.12283
ltoes 28.857
1223
root 1.17372 17.7899 -10.6174 167.54 -86.9052 -532.191
lowerback 6.53908 0.301335 -2.90845
upperback 3.52016 0.151288 2.76256
thorax -0.0470181 -0.0313769 4.48274
lowerneck -11.1895 0.554064 -8.95596
upperneck 42.549 -0.693015 3.77588
head 17.6218 -2.02772 3.00552
rclavicle -7.85199e-015 -6.2816e-014
rhumerus -32.6616 -10.6031 -78.9371
rradius 33.6199
rwrist -11.5196
rhand -21.1713 12.6592
rfingers 7.12502
rthumb 5.20895 -17.2568
lclavicle -7.85199e-015 -6.2816e-014
lhumerus -32.9622 3.78237 85.5466
lradius 38.4301
lwrist 6.42318
lhand -15.3841 19.9731
lfingers 7.12502
lthumb 10.7943 49.6758
rfemur -20.3116 -12.4878 16.235
rtibia 91.075
rfoot -19.5936 0.157757
rtoes 2.85641
lfemur -2.14405 1.0958 -20.5033
ltibia 15.7951
lfoot -2.13249 -8.57195
ltoes 29.0619
1224
root 1.13611 17.7862 -10.6253 155.219 -86.6175 -519.862
lowerback 6.71346 0.269947 -2.29345
upperback 3.583 0.132776 2.99852
thorax -0.0774792 -0.0395646 4.38095
lowerneck -11.1054 0.617268 -8.92566
upperneck 42.5027 -0.612561 3.7722
head 17.5628 -1.98856 3.00996
rclavicle -5.36719e-015 -3.97569e-015
rhumerus -32.3615 -10.1802 -79.0859
rradius 33.9615
rwrist -11.8274
rhand -21.4197 12.9788
rfingers 7.12502
rthumb 4.96915 -16.9429
lclavicle -5.36719e-015 -3.97569e-015
lhumerus -32.8259 3.36813 85.5166
lradius 39.1357
lwrist 6.70027
lhand -14.9777 20.1103
lfingers 7.12502
lthumb 11.1862 49.7921
rfemur -20.8947 -12.3167 17.5922
rtibia 89.7517
rfoot -19.2504 0.693515
rtoes 3.23342
lfemur -2.27809 0.63329 -19.6201
ltibia 16.3941
lfoot -2.48004 -8.16349
ltoes 32.7063
